<svg width="25" height="25" viewBox="0 0 25 25" fill="none" xmlns="http://www.w3.org/2000/svg">
<path d="M8.27033 2.55623C7.97741 2.84925 7.81285 3.2466 7.81285 3.66092C7.81285 4.07524 7.97741 4.4726 8.27033 4.76561L16.0047 12.5L8.27033 20.2344C7.98571 20.5291 7.82822 20.9237 7.83178 21.3334C7.83534 21.7431 7.99966 22.135 8.28936 22.4247C8.57906 22.7144 8.97096 22.8787 9.38064 22.8823C9.79032 22.8858 10.185 22.7284 10.4797 22.4437L19.3188 13.6047C19.6117 13.3117 19.7762 12.9143 19.7762 12.5C19.7762 12.0857 19.6117 11.6883 19.3188 11.3953L10.4797 2.55623C10.1867 2.26331 9.78934 2.09876 9.37502 2.09876C8.9607 2.09876 8.56334 2.26331 8.27033 2.55623Z" fill="#AE9672"/>
</svg>
