<svg width="25" height="25" viewBox="0 0 25 25" fill="none" xmlns="http://www.w3.org/2000/svg">
<path d="M16.7297 22.4438C17.0226 22.1508 17.1872 21.7534 17.1872 21.3391C17.1872 20.9248 17.0226 20.5274 16.7297 20.2344L8.99531 12.5L16.7297 4.76564C17.0143 4.47095 17.1718 4.07626 17.1682 3.66657C17.1647 3.25689 17.0004 2.865 16.7107 2.5753C16.421 2.2856 16.0291 2.12127 15.6194 2.11771C15.2097 2.11415 14.815 2.27164 14.5203 2.55626L5.68125 11.3953C5.38832 11.6883 5.22377 12.0857 5.22377 12.5C5.22377 12.9143 5.38832 13.3117 5.68125 13.6047L14.5203 22.4438C14.8133 22.7367 15.2107 22.9012 15.625 22.9012C16.0393 22.9012 16.4367 22.7367 16.7297 22.4438Z" fill="#AE9672"/>
</svg>
